<svg width="10" height="12" viewBox="0 0 10 12" fill="none" xmlns="http://www.w3.org/2000/svg">
<path d="M0.669795 6.89555L0.161438 6.38719C-0.0538132 6.17194 -0.0538132 5.82388 0.161438 5.61092L4.61072 1.15935C4.82597 0.944098 5.17403 0.944098 5.38699 1.15935L9.83856 5.61092C10.0538 5.82617 10.0538 6.17423 9.83856 6.38719L9.3302 6.89555C9.11266 7.11309 8.75773 7.10851 8.54477 6.88639L5.91596 4.12706L5.91596 10.7082C5.91596 11.0128 5.67094 11.2578 5.36638 11.2578H4.63362C4.32906 11.2578 4.08404 11.0128 4.08404 10.7082L4.08404 4.12706L1.45523 6.88639C1.24227 7.1108 0.887336 7.11538 0.669795 6.89555V6.89555Z" fill="#5B5B5B"/>
</svg>
