<svg width="10" height="12" viewBox="0 0 10 12" fill="none" xmlns="http://www.w3.org/2000/svg">
<path d="M3.01786 0.394866C3.13839 0.152857 3.38616 0 3.65625 0H6.34375C6.61384 0 6.86161 0.152857 6.98214 0.394866L7.14286 0.714286H9.28571C9.6808 0.714286 10 1.03415 10 1.42857C10 1.82299 9.6808 2.14286 9.28571 2.14286H0.714286C0.319866 2.14286 0 1.82299 0 1.42857C0 1.03415 0.319866 0.714286 0.714286 0.714286H2.85714L3.01786 0.394866ZM0.694196 2.85714H9.28571V10C9.28571 10.7879 8.64509 11.4286 7.85714 11.4286H2.12277C1.35379 11.4286 0.694196 10.7879 0.694196 10V2.85714ZM2.47991 4.64286V9.64286C2.47991 9.83929 2.66071 10 2.83705 10C3.05357 10 3.1942 9.83929 3.1942 9.64286V4.64286C3.1942 4.44643 3.05357 4.28571 2.83705 4.28571C2.66071 4.28571 2.47991 4.44643 2.47991 4.64286ZM4.62277 4.64286V9.64286C4.62277 9.83929 4.80357 10 4.97991 10C5.19643 10 5.35714 9.83929 5.35714 9.64286V4.64286C5.35714 4.44643 5.19643 4.28571 4.97991 4.28571C4.80357 4.28571 4.62277 4.44643 4.62277 4.64286ZM6.78571 4.64286V9.64286C6.78571 9.83929 6.94643 10 7.14286 10C7.33929 10 7.5 9.83929 7.5 9.64286V4.64286C7.5 4.44643 7.33929 4.28571 7.14286 4.28571C6.94643 4.28571 6.78571 4.44643 6.78571 4.64286Z" fill="#A22B2B"/>
</svg>
